<svg width="30" height="31" viewBox="0 0 30 31" fill="none" xmlns="http://www.w3.org/2000/svg">
<path fill-rule="evenodd" clip-rule="evenodd" d="M11.7862 11.7112H16.4287V14.0237C17.0975 12.6937 18.8125 11.4987 21.3887 11.4987C26.3275 11.4987 27.5 14.1462 27.5 19.0037V28H22.5V20.11C22.5 17.3437 21.8312 15.7837 20.1287 15.7837C17.7675 15.7837 16.7862 17.465 16.7862 20.1087V28H11.7862V11.7112V11.7112ZM3.2125 27.7875H8.2125V11.4987H3.2125V27.7875V27.7875ZM8.92875 6.1875C8.92893 6.60659 8.84582 7.02154 8.68423 7.40823C8.52265 7.79492 8.28581 8.14564 7.9875 8.44C7.383 9.04078 6.56476 9.37707 5.7125 9.375C4.86174 9.37443 4.04539 9.039 3.44 8.44125C3.14276 8.14589 2.90673 7.79478 2.74543 7.40804C2.58413 7.0213 2.50072 6.60653 2.5 6.1875C2.5 5.34125 2.8375 4.53125 3.44125 3.93375C4.04611 3.3352 4.8628 2.99963 5.71375 3C6.56625 3 7.38375 3.33625 7.9875 3.93375C8.59 4.53125 8.92875 5.34125 8.92875 6.1875Z" fill="white" class="hidden"/>
</svg>
